<svg xmlns="http://www.w3.org/2000/svg" width="512" height="512" viewBox="0 0 512 512"><defs><linearGradient id="sheenP512" x1="0" y1="0" x2="0" y2="1"><stop offset="0" stop-color="#FFFFFF" stop-opacity="0.30"/><stop offset="0.44" stop-color="#FFFFFF" stop-opacity="0"/><stop offset="1" stop-color="#06340A" stop-opacity="0.24"/></linearGradient></defs><polygon points="256.000,88.064 338.432,236.544 256.000,385.024 173.568,236.544" fill="#79D221"/><polygon points="256.000,88.064 173.568,236.544 201.045,236.544" fill="#33A00F"/><polygon points="256.000,88.064 201.045,236.544 232.095,236.544" fill="#6DCC1E"/><polygon points="256.000,88.064 232.095,236.544 256.000,236.544" fill="#AFE54A"/><polygon points="256.000,88.064 256.000,236.544 279.905,236.544" fill="#AFE54A"/><polygon points="256.000,88.064 279.905,236.544 310.955,236.544" fill="#6DCC1E"/><polygon points="256.000,88.064 310.955,236.544 338.432,236.544" fill="#33A00F"/><polygon points="256.000,385.024 173.568,236.544 201.045,236.544" fill="#2D940D"/><polygon points="256.000,385.024 201.045,236.544 232.095,236.544" fill="#54B218"/><polygon points="256.000,385.024 232.095,236.544 256.000,236.544" fill="#81C336"/><polygon points="256.000,385.024 256.000,236.544 279.905,236.544" fill="#81C336"/><polygon points="256.000,385.024 279.905,236.544 310.955,236.544" fill="#54B218"/><polygon points="256.000,385.024 310.955,236.544 338.432,236.544" fill="#2D940D"/><polygon points="256.000,88.064 338.432,236.544 256.000,385.024 173.568,236.544" fill="url(#sheenP512)"/></svg>